PathFileType	4	(X/Y/Z)	D:/Ayumi_testdata/Ayumi_25_09_2024/25-09-2024/conventional_dl_80kg01/conventional_dl_80kg01.trc	
DataRate	CameraRate	NumFrames	NumMarkers	Units	OrigDataRate	OrigDataStartFrame	OrigNumFrames	
200.00	200.00	6	55	mm	200.00	163	2620	
Frame#	Time	RSACR			LSACR			USACR			LBAR			RBAR			RHEE			RMT1			RMT5			RMT2			LHEE			LMT1			LMT5			LMT2			LMMAL			LLMAL			LTIB4			LTIB3			LTIB2			LTIB1			RMMAL			RLMAL			RTIB1			RTIB3			RTIB2			RTHI			RTHI4			RTHI3			RTHI2			LTHI1			LTHI4			LTHI3			LTHI2			FHD			LBHD			RBHD			C7			T10			CLAV			LSHO			RSHO			LRAD			LUL			LRFIN			RRAD			RUL			RUFIN			LMUPA			LDUPA			LUUPA			RMUPA			RUUPA			RDUPA			*52			*53			*54			
		X1	Y1	Z1	X2	Y2	Z2	X3	Y3	Z3	X4	Y4	Z4	X5	Y5	Z5	X6	Y6	Z6	X7	Y7	Z7	X8	Y8	Z8	X9	Y9	Z9	X10	Y10	Z10	X11	Y11	Z11	X12	Y12	Z12	X13	Y13	Z13	X14	Y14	Z14	X15	Y15	Z15	X16	Y16	Z16	X17	Y17	Z17	X18	Y18	Z18	X19	Y19	Z19	X20	Y20	Z20	X21	Y21	Z21	X22	Y22	Z22	X23	Y23	Z23	X24	Y24	Z24	X25	Y25	Z25	X26	Y26	Z26	X27	Y27	Z27	X28	Y28	Z28	X29	Y29	Z29	X30	Y30	Z30	X31	Y31	Z31	X32	Y32	Z32	X33	Y33	Z33	X34	Y34	Z34	X35	Y35	Z35	X36	Y36	Z36	X37	Y37	Z37	X38	Y38	Z38	X39	Y39	Z39	X40	Y40	Z40	X41	Y41	Z41	X42	Y42	Z42	X43	Y43	Z43	X44	Y44	Z44	X45	Y45	Z45	X46	Y46	Z46	X47	Y47	Z47	X48	Y48	Z48	X49	Y49	Z49	X50	Y50	Z50	X51	Y51	Z51	X52	Y52	Z52	X53	Y53	Z53	X54	Y54	Z54	X55	Y55	Z55	

1	0.000	315.60013	961.35321	862.84448	317.30209	902.03400	863.95447	307.13467	931.24921	878.57465	213.11453	-196.36317	252.03270	162.86911	2024.00171	244.33031	277.75537	1342.02539	30.07294	115.23772	1453.69702	43.76689	183.25778	1499.97595	30.86936	145.03836	1481.71655	41.42998	309.86960	496.38675	40.14477	141.86807	399.55560	49.47188	206.27129	350.44009	32.78462	167.41682	369.51031	46.70531	250.01703	512.09796	65.08530	290.71426	443.74213	74.26926	310.93054	510.05545	204.61682	295.39182	519.43298	267.24844	333.24527	550.14447	252.06418	326.40543	560.75311	294.96899	227.78575	1337.51123	59.69118	271.49149	1397.11511	72.14831	273.99823	1310.61389	309.58551	285.27487	1329.64282	247.10594	315.35471	1289.06848	288.67941	261.82663	1115.10876	729.96356	263.56100	1175.30701	587.31592	213.53253	1183.21973	595.67346	244.97850	1160.18860	648.97919	279.99356	733.66058	724.90405	224.74252	661.82056	600.51459	273.94724	676.81909	600.69489	243.83336	685.33209	658.71692	149.40140	820.30975	1506.44824	260.39539	833.93518	1489.32642	268.53076	958.39075	1480.74585	279.26547	908.59088	1297.67419	296.28958	926.59393	916.19006	152.61015	916.54645	1242.26624	264.54623	775.04663	1290.38147	243.83014	1031.42151	1311.04761	243.61473	270.34427	1281.60291	203.23058	271.47446	1287.28381	185.47977	182.86043	1285.87500	215.36366	1539.65491	1358.73511	262.19998	1544.40625	1351.88318	201.01241	1625.59692	1373.46375	264.87198	556.48828	1268.99158	229.32613	585.78845	1288.53552	262.53040	635.73901	1274.43970	261.77350	1249.75244	1316.04395	255.19681	1187.83704	1312.13306	211.65160	1253.14661	1323.84021									 
2	0.005	315.59805	961.35608	862.84747	317.30643	902.04120	863.95428	307.14685	931.25806	878.56616	212.97638	-196.67935	252.06538	162.87271	2024.00439	244.33513	277.75116	1342.01941	30.07199	115.26978	1453.69385	43.76346	183.26872	1499.97632	30.87239	145.04582	1481.73291	41.42992	309.86182	496.39078	40.14064	141.86250	399.56470	49.47583	206.25566	350.43729	32.78308	167.41681	369.51846	46.70778	250.01268	512.09863	65.07479	290.70190	443.74850	74.26876	310.81564	510.16098	204.59763	295.36472	519.45422	267.24384	333.25824	550.14636	252.06032	326.40173	560.78595	294.96973	227.78004	1337.50732	59.69085	271.49295	1397.10706	72.13837	273.99994	1310.61963	309.58072	285.26193	1329.65112	247.10129	315.36627	1289.07886	288.67935	261.82458	1115.11609	729.98016	263.55807	1175.32080	587.31824	213.53986	1183.24072	595.68585	245.01331	1160.17200	648.98700	279.99402	733.69281	724.89203	224.73767	661.84003	600.50842	273.94031	676.84143	600.66754	243.81738	685.33850	658.69952	149.40175	820.31067	1506.45239	260.40433	833.94196	1489.32434	268.55820	958.38513	1480.74866	279.29037	908.59973	1297.67236	296.30774	926.59686	916.18256	152.62782	916.53876	1242.27539	264.56036	775.03424	1290.38074	243.85422	1031.41919	1311.03845	243.64807	270.33783	1281.63074	203.26239	271.46481	1287.30823	185.51700	182.84529	1285.89343	215.35229	1539.64807	1358.69006	262.17499	1544.40784	1351.83032	200.97665	1625.61243	1373.40247	264.89441	556.47693	1269.00037	229.33395	585.79395	1288.54309	262.49094	635.76038	1274.43457	261.79358	1249.75085	1316.01782	255.22391	1187.84583	1312.11292	211.66281	1253.14734	1323.80933									 
3	0.010	315.60394	961.36981	862.84290	317.45236	901.90765	863.88300	307.15427	931.26575	878.57068	213.12196	-196.35712	252.04001	162.87517	2024.00330	244.33243	277.75848	1342.01794	30.07658	115.25366	1453.70569	43.76545	183.25790	1499.97253	30.87955	145.04877	1481.73840	41.43258	309.86215	496.39505	40.13704	141.86119	399.56409	49.46838	206.25728	350.44330	32.78009	167.42046	369.51651	46.71554	250.01007	512.11285	65.07774	290.71118	443.75986	74.25635	310.91092	510.11432	204.59473	295.35541	519.46808	267.24341	333.24579	550.17267	252.04994	326.38867	560.79242	294.95572	227.77641	1337.51550	59.70090	271.49680	1397.11365	72.13853	273.99954	1310.62622	309.57544	285.28903	1329.65405	247.10811	315.36551	1289.08008	288.67044	261.82440	1115.11267	729.98615	263.56464	1175.31470	587.32574	213.54298	1183.25964	595.70032	244.97055	1160.21509	648.98328	279.99963	733.70703	724.88953	224.72720	661.86041	600.50183	273.94644	676.89502	600.64270	243.81471	685.32245	658.68884	149.41676	820.31146	1506.44409	260.42407	833.94757	1489.33215	268.56955	958.38593	1480.74988	279.30307	908.59686	1297.66760	296.32135	926.59772	916.17590	152.64465	916.52875	1242.29163	264.58118	775.02869	1290.37622	243.88202	1031.40881	1311.03186	243.66896	270.32123	1281.65234	203.27850	271.45410	1287.32971	185.54108	182.83693	1285.90784	215.33850	1539.65002	1358.65442	262.17642	1544.42554	1351.77661	200.96512	1625.62207	1373.34485	264.91388	556.47876	1269.02271	229.34631	585.78778	1288.55371	262.53088	635.75897	1274.43506	261.80618	1249.76550	1315.97876	255.24287	1187.85120	1312.08594	211.66527	1253.14868	1323.79175									 
4	0.015	315.61255	961.37836	862.84509	317.32443	902.05182	863.94611	307.15366	931.27429	878.57068	213.12421	-196.36067	252.04163	162.87663	2024.00562	244.32669	277.75446	1342.02808	30.07660	115.27129	1453.71851	43.76541	183.26637	1499.97034	30.86572	145.04033	1481.73950	41.43921	309.86322	496.39960	40.13895	141.86487	399.56448	49.46467	206.24988	350.44208	32.78938	167.40610	369.51846	46.70818	250.01045	512.10297	65.06905	290.70645	443.76297	74.26518	310.77173	510.23132	204.59143	295.36078	519.47711	267.24554	333.23401	550.18506	252.03986	326.79224	560.79486	295.07449	227.77640	1337.51172	59.70699	271.49020	1397.12488	72.13517	273.99506	1310.61841	309.55792	285.27838	1329.65747	247.10269	315.37033	1289.08606	288.68158	261.82050	1115.12366	729.99512	263.59097	1175.21753	587.25403	213.54364	1183.26782	595.70245	245.00220	1160.21118	649.01703	279.84351	733.68958	724.68054	224.71364	661.87732	600.49744	273.94336	676.91095	600.63904	243.82759	685.36517	658.67798	149.42116	820.32172	1506.44897	260.43387	833.95251	1489.34521	268.57993	958.38123	1480.75183	279.32114	908.59747	1297.66797	296.33438	926.60284	916.17621	152.66487	916.51978	1242.29944	264.78857	774.99841	1290.44104	243.90239	1031.41382	1311.02124	243.70279	270.31140	1281.67236	203.29897	271.44052	1287.34766	185.57179	182.82341	1285.93176	215.31825	1539.64819	1358.60449	262.16376	1544.42627	1351.72754	200.93625	1625.61829	1373.28149	264.92398	556.46881	1269.02527	229.35780	585.77557	1288.56470	262.54617	635.74274	1274.44653	261.81442	1249.76428	1315.96655	255.26450	1187.84265	1312.06848	211.68246	1253.13464	1323.77173									 
5	0.020	315.61758	961.38287	862.84613	317.45642	901.93915	863.88452	307.16296	931.28931	878.56476	213.11673	-196.33049	252.04141	162.88748	2023.99524	244.33162	277.76389	1342.04895	30.07964	115.25649	1453.71606	43.77728	183.27960	1499.97070	30.87548	145.04977	1481.74084	41.43060	309.86096	496.39667	40.13416	141.85994	399.56720	49.46700	206.25493	350.44000	32.77667	167.41452	369.51007	46.71170	250.00017	512.10071	65.06507	290.70282	443.76505	74.26320	310.79114	510.23691	204.58063	295.38019	519.48578	267.25150	333.22665	550.22327	252.04526	326.38559	560.82703	294.94705	227.77173	1337.51929	59.70680	271.47153	1397.12219	72.11919	273.99744	1310.63037	309.56177	285.27734	1329.65881	247.09506	315.35849	1289.09631	288.67603	261.82941	1115.13208	730.00555	263.57794	1175.29968	587.33197	213.55463	1183.28027	595.70532	245.01100	1160.22180	649.01837	280.01215	733.74359	724.86548	224.70477	661.89758	600.50519	273.93369	676.92273	600.63788	243.82103	685.37872	658.68311	149.43991	820.34027	1506.45166	260.46179	833.95947	1489.35852	268.60071	958.38989	1480.74963	279.33569	908.59912	1297.66541	296.34521	926.60681	916.17957	152.68250	916.50323	1242.30908	264.77829	774.98145	1290.43872	243.90833	1031.40564	1311.01721	243.71907	270.30545	1281.68469	203.32323	271.41751	1287.36292	185.59933	182.79027	1285.95129	215.29938	1539.65515	1358.55493	262.14978	1544.44299	1351.67883	200.93062	1625.61877	1373.21643	264.94766	556.44922	1269.03918	229.37907	585.76367	1288.57800	262.59427	635.71368	1274.44861	261.81934	1249.74768	1315.94055	255.27440	1187.83704	1312.04187	211.71428	1253.13818	1323.74854									 
6	0.025	315.62839	961.38489	862.83801	317.44836	901.95129	863.88684	307.16327	931.28687	878.56592	212.99438	-196.58694	252.06688	162.89186	2023.98804	244.33478	277.76126	1342.04407	30.08226	115.24436	1453.71765	43.78001	183.30020	1499.96997	30.88482	145.05670	1481.73804	41.43496	309.86401	496.39215	40.13681	141.86349	399.55704	49.46396	206.26180	350.45047	32.77273	167.41075	369.50983	46.70978	250.01482	512.10010	65.05341	290.69485	443.77982	74.25363	310.77768	510.24948	204.57375	295.37143	519.49762	267.25888	333.22021	550.24127	252.02740	326.74808	560.82068	295.04675	227.76370	1337.50818	59.71561	271.45392	1397.10156	72.10517	274.01572	1310.63586	309.56085	284.68832	1329.31970	247.02155	315.36581	1289.08850	288.66757	261.81650	1115.14587	730.00848	263.59262	1175.29285	587.32709	213.57715	1183.30591	595.71979	245.01534	1160.22864	649.01056	279.99683	733.75574	724.83344	224.71185	661.90717	600.51050	273.92227	676.92419	600.64093	243.82541	685.40552	658.67334	149.45168	820.35974	1506.45044	260.47583	833.95490	1489.35083	268.61719	958.39716	1480.75647	279.35977	908.58759	1297.66028	296.35907	926.59888	916.17084	152.68906	916.48627	1242.31543	264.78271	774.97644	1290.43652	243.93500	1031.38892	1311.01050	243.66927	270.36722	1281.58740	203.33830	271.39423	1287.37939	185.62047	182.75670	1285.97131	215.29059	1539.64478	1358.50208	262.13879	1544.45520	1351.62915	200.91287	1625.61951	1373.14624	264.97397	556.43896	1269.03772	229.38928	585.74512	1288.58594	262.63345	635.68744	1274.44971	261.82376	1249.74609	1315.91626	255.28706	1187.82483	1312.01794	211.72798	1253.13452	1323.71631									 
